<svg
   width="75mm"
   height="76mm"
   viewBox="0 0 175 176"
   version="1.1"
   id="svg5"
   xmlns="http://www.w3.org/2000/svg"
   xmlns:svg="http://www.w3.org/2000/svg">
  <defs
     id="defs2" />
  <g
     id="layer1">
    <path
       style="fill:#000000;stroke-width:0.217128"
       d="m 9.4528212,173.26059 c -1.801813,-2.10905 -2.3873,-4.70827 -2.028225,-9.00412 0.519088,-6.21021 2.353397,-8.55205 7.1667568,-9.14971 3.085688,-0.38314 2.786303,-0.0961 2.786303,-2.67152 0,-4.68859 1.558341,-8.05369 4.402615,-9.50706 0.60123,-0.30721 1.51521,-0.51334 2.654054,-0.59857 l 1.737026,-0.12999 -0.05681,-23.0156 C 26.083301,106.52544 25.996069,89.560101 25.920702,81.483251 l -0.13703,-14.68517 -0.976389,-0.13383 c -0.537015,-0.0736 -1.384703,-0.13383 -1.883753,-0.13383 -2.359656,0 -4.45499,-1.27394 -5.290753,-3.21673 -0.498308,-1.15835 -0.906507,-3.92898 -0.906507,-6.15286 0,-0.96601 -0.103418,-1.55922 -0.307388,-1.76319 -0.193016,-0.19302 -1.021102,-0.3581 -2.225565,-0.44367 -5.6529058,-0.40164 -7.1794508,-2.25811 -7.5761658,-9.21358 l -0.151706,-2.65982 -1.329154,-0.0175 c -3.19274,-0.042 -4.15182002,-0.79258 -4.15182002,-3.24934 0,-1.21514 0.08199,-1.57613 0.43425602,-1.91209 0.518426,-0.49443 4.905866,-2.44525 37.7803198,-16.79858 C 71.903637,6.8239186 82.11308,2.5223996 86.044893,1.3656406 l 1.66399,-0.489552 1.90904,0.721169 c 4.50429,1.701566 26.335897,10.9691394 50.654337,21.5028934 3.64232,1.57771 9.0651,3.92304 12.05061,5.21184 2.98552,1.2888 8.84798,3.81976 13.0277,5.62435 8.18908,3.53562 8.82626,3.92275 9.13111,5.54773 0.39204,2.08974 -1.57706,3.59219 -4.71195,3.59529 l -1.22617,0.001 -0.0836,3.52833 c -0.0968,4.08497 -0.17684,4.32176 -2.11489,6.25981 -1.81383,1.81383 -2.28656,2.00367 -5.33701,2.14325 l -2.60554,0.11923 -0.12592,3.36548 c -0.089,2.37852 -0.23351,3.64766 -0.4928,4.32766 -0.93212,2.44452 -2.50525,3.40155 -6.14581,3.73885 -1.29374,0.11987 -2.37527,0.24096 -2.40339,0.26909 -0.0281,0.0281 -0.11807,17.0091 -0.19987,37.735489 l -0.14872,37.68435 2.58697,0.0969 c 2.06504,0.0773 2.806,0.19486 3.67261,0.5825 2.65622,1.18815 3.69167,3.18832 4.31859,8.34216 0.4016,3.30158 0.54684,3.52276 2.42863,3.69849 2.75787,0.25753 5.4761,1.98085 6.358,4.03088 0.25032,0.58189 0.56697,2.00633 0.70367,3.16544 0.28843,2.44565 0.15651,8.18872 -0.20879,9.0895 -0.13707,0.33799 -0.80092,1.19293 -1.47522,1.89987 l -1.226,1.28524 H 88.253773 10.46313 Z M 149.8259,171.18964 c 11.80748,-0.25873 14.53132,-0.53558 15.77238,-1.60309 l 0.58033,-0.49918 -0.24082,-3.02172 c -0.25207,-3.16292 -0.8207,-5.52266 -1.54703,-6.42002 l -0.41281,-0.51001 -7.23887,-0.13798 c -3.98138,-0.0759 -37.92664,-0.21364 -75.433912,-0.30611 l -68.19504,-0.16813 -0.57608,0.75528 c -1.143024,1.49858 -1.317207,2.34737 -1.331448,6.48815 -0.01676,4.87199 -0.02447,4.85641 2.523984,5.09721 4.710765,0.44511 118.249276,0.71674 136.099316,0.3256 z m 6.02356,-18.94784 c -0.122,-2.83005 -0.38871,-3.87436 -1.36704,-5.35272 l -0.58879,-0.88972 -54.741747,0.0139 c -53.725514,0.0136 -74.515275,0.1809 -76.231641,0.61338 -0.474486,0.11956 -0.976029,0.37237 -1.114539,0.56179 -0.371465,0.50801 -0.736866,3.31441 -0.736866,5.65936 v 2.05385 H 88.516483 155.96412 Z M 43.867305,128.66507 c 0,-7.50371 -0.06493,-24.49516 -0.144299,-37.758779 l -0.144299,-24.11567 -3.492599,-0.12395 c -1.92093,-0.0682 -4.982642,-0.1749 -6.803806,-0.23717 l -3.311206,-0.11322 v 37.995949 37.99595 h 6.948105 6.948104 z m 33.504506,13.48027 c 0.13964,-0.24616 -0.241342,-75.210499 -0.382951,-75.352109 -0.06761,-0.0676 -6.671644,-0.12997 -14.675642,-0.13858 -11.739063,-0.0126 -14.586607,0.0391 -14.727993,0.26734 -0.351107,0.56694 -0.460996,10.75572 -0.460996,42.743479 v 32.64271 h 15.0776 c 8.292681,0 15.119174,-0.0733 15.169982,-0.16284 z m 17.032712,-37.78032 -0.0549,-37.943169 -5.53678,0.051 c -3.04522,0.0281 -6.040699,0.10725 -6.656618,0.17596 l -1.119852,0.12493 -0.126111,1.12681 c -0.06936,0.61974 -0.187972,17.61498 -0.26358,37.767199 l -0.137471,36.64039 h 6.975092 6.9751 z m 33.556137,37.78032 c 0.15011,-0.27058 -0.21228,-75.183469 -0.36443,-75.335629 -0.0776,-0.0776 -6.53441,-0.1478 -14.34838,-0.15594 -11.38156,-0.0118 -14.263467,0.0413 -14.490007,0.26743 -0.22956,0.2291 -0.29612,7.34977 -0.35365,37.834599 l -0.0709,37.55238 h 14.768497 c 8.12267,0 14.80915,-0.0733 14.85884,-0.16284 z m 17.65133,-37.55922 c -0.0863,-20.747139 -0.19943,-37.764589 -0.25139,-37.816559 -0.052,-0.052 -3.06913,-0.10261 -6.70479,-0.11253 -5.15229,-0.0141 -6.67282,0.0442 -6.89377,0.26416 -0.23052,0.22949 -0.29592,7.29761 -0.35005,37.834599 l -0.0666,37.55239 h 7.21175 7.21174 z m 8.11542,-41.954459 c 1.03207,-1.44941 1.36699,-2.61754 1.47914,-5.15886 l 0.10816,-2.45087 -67.394347,0.0546 -67.394347,0.0546 0.02748,2.93123 c 0.0352,3.75416 0.27645,4.44406 1.634759,4.67492 1.946203,0.33077 22.089041,0.46348 75.783488,0.49928 l 55.298637,0.0369 z m 1.50587,-11.72382 c 4.46682,-0.12086 8.2988,-0.27603 8.51553,-0.34482 0.57885,-0.18372 0.83508,-1.37709 0.98887,-4.6055 l 0.13704,-2.87695 H 87.652133 10.429552 l 0.0052,2.65982 c 0.0057,2.92084 0.221562,4.25094 0.752994,4.63953 0.512149,0.37449 6.063268,0.55431 22.908807,0.74208 19.967919,0.22257 110.940377,0.0617 121.136747,-0.21416 z m 10.5307,-11.48124 2.36756,-0.14577 -0.84767,-0.4076 C 162.23411,36.445081 125.52102,20.478821 106.07455,12.253741 92.113183,6.3486376 87.886543,4.6491536 87.161373,4.6489796 c -0.42553,-1.02e-4 -3.7574,1.30155 -8.890201,3.473107 C 59.97534,15.862581 35.319929,26.589241 21.720222,32.725301 c -9.983734,4.50457 -13.4908558,6.2731 -13.1388298,6.62548 0.08086,0.0809 5.7815708,0.20732 12.6682368,0.28082 15.826716,0.16894 141.332731,-0.009 144.514351,-0.205 z m -80.219977,-7.8289 c -3.736872,-1.19585 -6.117422,-3.75245 -6.720911,-7.21794 -0.196249,-1.12695 -0.178599,-1.69575 0.09306,-2.99862 0.602822,-2.89114 2.286565,-4.99284 5.104851,-6.372036 1.34294,-0.657198 1.56607,-0.698027 3.81478,-0.698027 2.14182,0 2.51771,0.06059 3.64086,0.586905 0.69286,0.324678 1.76479,1.100778 2.39915,1.737028 2.0855,2.09171 2.69733,4.11813 2.30912,7.64795 -0.27176,2.47101 -0.68079,3.43335 -2.00586,4.71929 -2.78741,2.70509 -5.62616,3.55833 -8.63505,2.59545 z m 4.10096,-3.6556 c 1.03466,-0.49003 2.58776,-2.04907 2.98257,-2.99398 0.99006,-2.36955 -0.32572,-5.33622 -3.00338,-6.77164 -1.03977,-0.5574 -3.27402,-0.50748 -4.42719,0.0989 -3.165955,1.66481 -3.630312,6.31074 -0.89103,8.91481 1.38429,1.31597 3.51457,1.61597 5.33903,0.75189 z"
       id="path836" />
  </g>
</svg>
