<?xml version="1.0" encoding="UTF-8" standalone="no"?>
<svg
   width="300"
   height="300"
   viewBox="0 0 459.99988 460"
   version="1.1"
   id="svg974"
   sodipodi:docname="splash.svg"
   inkscape:version="1.1.2 (0a00cf5339, 2022-02-04)"
   xmlns:inkscape="http://www.inkscape.org/namespaces/inkscape"
   xmlns:sodipodi="http://sodipodi.sourceforge.net/DTD/sodipodi-0.dtd"
   xmlns="http://www.w3.org/2000/svg"
   xmlns:svg="http://www.w3.org/2000/svg">
  <defs
     id="defs978" />
  <sodipodi:namedview
     id="namedview976"
     pagecolor="#ffffff"
     bordercolor="#666666"
     borderopacity="1.0"
     inkscape:pageshadow="2"
     inkscape:pageopacity="0.0"
     inkscape:pagecheckerboard="0"
     showgrid="false"
     inkscape:zoom="0.840625"
     inkscape:cx="-248.02974"
     inkscape:cy="-11.301115"
     inkscape:window-width="1850"
     inkscape:window-height="1016"
     inkscape:window-x="0"
     inkscape:window-y="0"
     inkscape:window-maximized="1"
     inkscape:current-layer="svg974" />
  <g
     id="g972"
     transform="matrix(4.2353236,0,0,4.2353236,32.930669,36.935001)">
    <path
       d="M 91,1 V 91 H 1 V 1 H 91 M 92,0 H 0 v 92 h 92 z"
       fill="#333333"
       id="path930" />
    <g
       id="g970">
      <path
         d="m 14.4448,56.0012 -1.14,-2.54 H 9.6867 l -0.0362,0.0981 c -0.3193,0.7372 -0.6625,1.5828 -0.97,2.3425 H 7.3324 l 2.9181,-6.2795 c 0.478,-1.0306 0.7973,-1.7527 1.0668,-2.4631 l 0.32,-0.0869 2.9427,6.316 c 0.3446,0.7606 0.8221,1.7542 1.2142,2.5138 z M 12.8512,52.4553 11.49,49.4025 10.1415,52.4554 Z"
         fill="#333333"
         id="path932" />
      <path
         d="m 23.6454,55.9885 -2.2077,-3.4717 h -1.3363 v 1.62 c 0,0.477 0.0108,1.4217 0.0484,1.765 h -1.3612 c 0.0615,-0.5888 0.0855,-2.1589 0.0855,-2.9557 v -2.711 c 0,-0.7846 -0.0239,-2.3659 -0.0855,-2.9547 0.4414,0 1.6917,-0.0484 2.2561,-0.0606 2.1589,-0.0371 3.3477,1.1527 3.3116,2.5129 a 2.6749,2.6749 0 0 1 -1.803,2.5021 l 1.2518,1.84 c 0.3306,0.4658 1.0057,1.41 1.2874,1.7532 z M 20.1014,51.5 h 1.2376 a 1.608,1.608 0 0 0 1.7541,-1.6072 c 0,-1.0546 -0.6376,-1.6053 -1.9251,-1.6053 -0.393,0 -0.7362,0.0117 -1.056,0.0352 -0.0108,0.246 -0.0108,0.5282 -0.0108,0.7113 z"
         fill="#333333"
         id="path934" />
      <path
         d="m 34.2431,48.3226 c -0.9447,-0.0117 -1.7659,-0.0235 -2.8576,-0.0235 -0.0131,0.2578 -0.0131,0.5756 -0.0131,0.7719 v 5.0662 c 0,0.477 0.0131,1.4217 0.05,1.765 h -1.3609 c 0.061,-0.5888 0.085,-2.1589 0.085,-2.9557 v -2.6608 c 0,-0.5029 -0.0117,-1.3 -0.0366,-1.9866 -1.0917,0 -1.95,0.0117 -2.8937,0.0235 a 10.6738,10.6738 0 0 0 0.0488,-1.1151 c 1.1156,0.0362 2.1589,0.0615 3.4952,0.0615 1.3363,0 2.4519,-0.0254 3.5816,-0.0615 a 7.828,7.828 0 0 0 -0.0986,1.1151"
         fill="#333333"
         id="path936" />
      <path
         d="m 8.6563,69.7807 c 0.0624,-0.5859 0.0859,-2.1467 0.0859,-2.939 v -2.6953 c 0,-0.7811 -0.0235,-2.3526 -0.0859,-2.9385 a 11.9086,11.9086 0 0 0 1.3616,-0.0607 c -0.0366,0.3539 -0.0488,1.3283 -0.0488,1.8045 v 5.0731 c 0,0.4627 0.0122,1.4151 0.0488,1.7559 z"
         fill="#333333"
         id="path938" />
      <path
         d="m 21.67,62.9514 -0.0845,5.1464 c 0,0.4757 -0.0127,1.4637 0.0235,1.8049 l -0.3183,0.0854 -5.6292,-6.427 v 4.4633 c 0,0.4757 0.0117,1.4151 0.0488,1.7559 h -1.3489 c 0.0737,-0.585 0.1347,-2.1462 0.147,-2.939 l 0.0488,-2.9376 c 0.0127,-0.7811 0.0127,-2.2326 -0.0488,-2.8176 L 14.8393,61 l 5.6785,6.5241 v -3.3779 c 0,-0.7806 -0.0249,-2.3526 -0.0981,-2.9381 a 11.95,11.95 0 0 0 1.349,-0.06 c -0.0493,0.3534 -0.0864,1.3283 -0.0991,1.8035"
         fill="#333333"
         id="path940" />
      <path
         d="m 27.6333,70 a 4.8641,4.8641 0 0 1 -2.4157,-0.7195 l 0.0732,-1.2928 a 4.0391,4.0391 0 0 0 2.4157,0.9141 c 0.92,0 1.57,-0.4505 1.57,-1.3539 0,-1.705 -3.7158,-1.7914 -3.7158,-4.0362 A 2.5631,2.5631 0 0 1 28.2709,61 a 3.4308,3.4308 0 0 1 2.0115,0.635 l -0.4057,1.0729 a 2.8979,2.8979 0 0 0 -1.6541,-0.61 c -0.8963,0 -1.4353,0.4767 -1.4353,1.2447 0,1.5244 3.7032,1.5972 3.7032,4.0362 A 2.6129,2.6129 0 0 1 27.6333,70"
         fill="#333333"
         id="path942" />
      <path
         d="m 40.2286,62.2439 c -0.9442,-0.0126 -1.7654,-0.0233 -2.8571,-0.0233 -0.0131,0.2554 -0.0131,0.5724 -0.0131,0.7675 v 5.0367 c 0,0.4753 0.0131,1.4146 0.05,1.7559 h -1.3609 c 0.061,-0.5855 0.085,-2.1467 0.085,-2.939 V 64.196 c 0,-0.5 -0.0117,-1.2933 -0.0371,-1.9754 -1.0912,0 -1.95,0.0107 -2.8932,0.0233 a 10.5682,10.5682 0 0 0 0.0484,-1.1088 c 1.1161,0.036 2.1594,0.06 3.4956,0.06 1.3362,0 2.4519,-0.0243 3.5811,-0.06 a 7.88,7.88 0 0 0 -0.0986,1.1088"
         fill="#333333"
         id="path944" />
      <path
         d="m 43.5542,69.7807 c 0.0629,-0.5859 0.0864,-2.1467 0.0864,-2.939 v -2.6953 c 0,-0.7811 -0.0235,-2.3526 -0.0864,-2.9385 a 11.9037,11.9037 0 0 0 1.3616,-0.0607 c -0.0366,0.3539 -0.0488,1.3283 -0.0488,1.8045 v 5.0731 c 0,0.4627 0.0122,1.4151 0.0488,1.7559 z"
         fill="#333333"
         id="path946" />
      <path
         d="m 55.0968,62.2439 c -0.9447,-0.0126 -1.7659,-0.0233 -2.8576,-0.0233 -0.0131,0.2554 -0.0131,0.5724 -0.0131,0.7675 v 5.0367 c 0,0.4753 0.0131,1.4146 0.05,1.7559 h -1.3609 c 0.061,-0.5855 0.085,-2.1467 0.085,-2.939 V 64.196 c 0,-0.5 -0.0117,-1.2933 -0.0366,-1.9754 -1.0917,0 -1.95,0.0107 -2.8937,0.0233 a 10.5657,10.5657 0 0 0 0.0488,-1.1088 c 1.1156,0.036 2.1589,0.06 3.4952,0.06 1.3363,0 2.4519,-0.0243 3.5816,-0.06 a 7.7411,7.7411 0 0 0 -0.0986,1.1088"
         fill="#333333"
         id="path948" />
      <path
         d="m 65.9152,61.2206 -2.7467,6.244 c -0.454,1.0355 -0.7484,1.7429 -0.9931,2.4492 L 61.8561,70 59.11,63.7324 C 58.778,62.9639 58.325,61.976 57.9564,61.2313 l 1.349,-0.0966 2.6857,6.4028 1.6554,-3.9875 c 0.2949,-0.72 0.6141,-1.5612 0.8963,-2.3293 z"
         fill="#333333"
         id="path950" />
      <path
         d="m 75.1641,62.2439 c -0.9447,-0.0126 -1.7654,-0.0233 -2.8576,-0.0233 -0.0127,0.2554 -0.0127,0.5724 -0.0127,0.7675 v 5.0367 c 0,0.4753 0.0127,1.4146 0.05,1.7559 H 70.983 c 0.061,-0.5855 0.085,-2.1467 0.085,-2.939 V 64.196 c 0,-0.5 -0.0117,-1.2933 -0.0371,-1.9754 -1.0912,0 -1.95,0.0107 -2.8932,0.0233 a 10.5682,10.5682 0 0 0 0.0484,-1.1088 c 1.1156,0.036 2.1594,0.06 3.4956,0.06 1.3362,0 2.4514,-0.0243 3.5811,-0.06 a 7.81,7.81 0 0 0 -0.0986,1.1088"
         fill="#333333"
         id="path952" />
      <path
         d="m 83.8255,69.8294 c -0.7367,-0.0486 -1.6433,-0.0616 -2.5148,-0.0616 -0.8715,0 -1.7908,0.0131 -2.5138,0.0616 0.061,-0.585 0.0859,-2.1584 0.0859,-2.9381 v -2.818 c 0,-0.7918 -0.0249,-2.3531 -0.0859,-2.9381 0.7231,0.0359 1.557,0.06 2.4279,0.06 0.8709,0 1.7044,-0.0238 2.4411,-0.06 a 7.5128,7.5128 0 0 0 -0.0991,1.085 c -0.7231,-0.0126 -1.471,-0.0238 -2.342,-0.0238 -0.3681,0 -0.7362,0 -1.0917,0.0112 -0.0239,0.22 -0.0239,0.536 -0.0239,0.72 v 1.8414 h 2.98 c -0.0249,0.3039 -0.0371,0.6345 -0.0371,1.0005 h -2.943 v 2.2555 c 0,0.1821 0,0.5122 0.0239,0.7307 0.3554,0 0.7235,0.0126 1.0917,0.0126 0.9935,0 1.8523,-0.0126 2.6857,-0.036 a 9.6835,9.6835 0 0 0 -0.085,1.0972"
         fill="#333333"
         id="path954" />
      <path
         d="m 15.0339,83.18 a 4.4944,4.4944 0 0 1 -2.8087,0.9808 4.2521,4.2521 0 0 1 -4.2915,-4.3051 4.5507,4.5507 0 0 1 4.5248,-4.745 4.6039,4.6039 0 0 1 2.55,0.7719 l -0.3432,1.1283 a 3.7322,3.7322 0 0 0 -2.281,-0.7968 3.2,3.2 0 0 0 -3.1881,3.3848 c 0,2.2434 1.3738,3.4576 3.1017,3.4576 A 3.9253,3.9253 0 0 0 15.12,81.8184 Z"
         fill="#333333"
         id="path956" />
      <path
         d="m 24.4175,83.94 c 0.0732,-0.5893 0.0986,-2.1589 0.0986,-2.9566 v -1.0287 h -4.5009 v 2.22 c 0,0.4653 0.0113,1.4231 0.0484,1.7659 h -1.3612 c 0.061,-0.5893 0.0864,-2.1589 0.0864,-2.9566 v -2.71 c 0,-0.7855 -0.0254,-2.3659 -0.0864,-2.9552 a 11.623,11.623 0 0 0 1.3612,-0.062 c -0.0371,0.3559 -0.0484,1.3367 -0.0484,1.8157 v 1.8767 h 4.5009 V 78.274 c 0,-0.7855 -0.0254,-2.3659 -0.0986,-2.9552 a 12.2142,12.2142 0 0 0 1.386,-0.062 c -0.05,0.3559 -0.062,1.3367 -0.062,1.8157 v 5.1019 c 0,0.4653 0.0122,1.4231 0.062,1.7659 z"
         fill="#333333"
         id="path958" />
      <path
         d="m 30.1961,83.94 c 0.0629,-0.5893 0.0864,-2.1589 0.0864,-2.9566 v -2.71 c 0,-0.7855 -0.0235,-2.3659 -0.0864,-2.9552 a 11.63,11.63 0 0 0 1.3621,-0.062 c -0.0366,0.3559 -0.0493,1.3367 -0.0493,1.8157 v 5.1019 c 0,0.4653 0.0127,1.4231 0.0493,1.7659 z"
         fill="#333333"
         id="path960" />
      <path
         d="m 42.3391,83.18 a 4.4967,4.4967 0 0 1 -2.8092,0.9808 4.252,4.252 0 0 1 -4.291,-4.3051 4.5507,4.5507 0 0 1 4.5248,-4.745 4.6034,4.6034 0 0 1 2.55,0.7719 L 41.97,77.0109 a 3.7312,3.7312 0 0 0 -2.281,-0.7968 3.2,3.2 0 0 0 -3.1876,3.3848 c 0,2.2434 1.3738,3.4576 3.1017,3.4576 a 3.925,3.925 0 0 0 2.8214,-1.2381 z"
         fill="#333333"
         id="path962" />
      <path
         d="m 51.9809,84.0387 -1.14,-2.5392 h -3.6182 l -0.0362,0.0986 c -0.3193,0.7362 -0.6625,1.5818 -0.97,2.3425 H 44.868 l 2.9186,-6.2795 c 0.478,-1.0306 0.7973,-1.7527 1.0668,-2.4641 l 0.32,-0.0869 2.9425,6.3156 c 0.3446,0.7616 0.8221,1.7542 1.2142,2.5148 z M 50.3873,80.4938 49.0257,77.44 47.6772,80.4938 Z"
         fill="#333333"
         id="path964" />
      <path
         d="m 61.9295,79.8921 c 0.4892,-0.0066 0.7315,-0.0183 1.2705,-0.0465 -0.061,0.4658 -0.0432,1.6664 -0.0432,2.4641 v 0.9437 a 5.13,5.13 0 0 1 -3.0552,0.9076 4.38,4.38 0 0 1 -4.4384,-4.3051 4.6039,4.6039 0 0 1 4.6718,-4.7459 5.2015,5.2015 0 0 1 2.7228,0.7724 l -0.3437,1.1278 a 4.2489,4.2489 0 0 0 -2.4528,-0.7968 3.2132,3.2132 0 0 0 -3.3355,3.3853 3.1653,3.1653 0 0 0 3.25,3.4576 3.6006,3.6006 0 0 0 1.7781,-0.3921 v -1.4955 c 0,-0.1845 0,-0.5151 -0.0239,-0.7357 z"
         fill="#333333"
         id="path966" />
      <path
         d="m 75.0908,79.4145 a 4.4672,4.4672 0 0 1 -4.4276,4.7464 4.16,4.16 0 0 1 -4.1821,-4.3051 4.4659,4.4659 0 0 1 4.4277,-4.7458 4.1606,4.1606 0 0 1 4.1821,4.3042 m -1.263,0.1972 c 0,-2.1716 -1.3255,-3.4595 -3.0547,-3.4595 -1.8143,0 -3.0285,1.5955 -3.0285,3.5078 0,2.1711 1.3236,3.4595 3.0533,3.4595 1.8156,0 3.03,-1.595 3.03,-3.5078"
         fill="#333333"
         id="path968" />
    </g>
  </g>
</svg>
